<?xml version="1.0" encoding="UTF-8" standalone="no"?>
<!DOCTYPE svg PUBLIC "-//W3C//DTD SVG 1.1//EN"
 "http://www.w3.org/Graphics/SVG/1.1/DTD/svg11.dtd">
<!-- Generated by graphviz version 10.0.1 (20240210.2158)
 -->
<!-- Title: G Pages: 1 -->
<svg width="85pt" height="495pt"
 viewBox="0.00 0.00 84.63 495.00" xmlns="http://www.w3.org/2000/svg" xmlns:xlink="http://www.w3.org/1999/xlink">
<g id="graph0" class="graph" transform="scale(1 1) rotate(0) translate(4 491)">
<title>G</title>
<polygon fill="white" stroke="none" points="-4,4 -4,-491 80.63,-491 80.63,4 -4,4"/>
<!-- q1 -->
<g id="node1" class="node">
<title>q1</title>
<ellipse fill="none" stroke="black" cx="27" cy="-381.25" rx="27" ry="18"/>
<text text-anchor="middle" x="27" y="-375.83" font-family="Times New Roman,serif" font-size="14.00">q1</text>
</g>
<!-- q2 -->
<g id="node2" class="node">
<title>q2</title>
<ellipse fill="none" stroke="black" cx="27" cy="-293.5" rx="27" ry="18"/>
<text text-anchor="middle" x="27" y="-288.08" font-family="Times New Roman,serif" font-size="14.00">q2</text>
</g>
<!-- q1&#45;&gt;q2 -->
<g id="edge1" class="edge">
<title>q1&#45;&gt;q2</title>
<path fill="none" stroke="black" d="M27,-362.9C27,-351.51 27,-336.34 27,-323.18"/>
<polygon fill="black" stroke="black" points="30.5,-323.34 27,-313.34 23.5,-323.34 30.5,-323.34"/>
<text text-anchor="middle" x="30" y="-331.95" font-family="Times New Roman,serif" font-size="14.00">e</text>
</g>
<!-- q3 -->
<g id="node6" class="node">
<title>q3</title>
<ellipse fill="none" stroke="black" cx="27" cy="-205.75" rx="27" ry="18"/>
<text text-anchor="middle" x="27" y="-200.33" font-family="Times New Roman,serif" font-size="14.00">q3</text>
</g>
<!-- q2&#45;&gt;q3 -->
<g id="edge2" class="edge">
<title>q2&#45;&gt;q3</title>
<path fill="none" stroke="black" d="M27,-275.15C27,-263.76 27,-248.59 27,-235.43"/>
<polygon fill="black" stroke="black" points="30.5,-235.59 27,-225.59 23.5,-235.59 30.5,-235.59"/>
<text text-anchor="middle" x="29.25" y="-244.2" font-family="Times New Roman,serif" font-size="14.00">r</text>
</g>
<!-- q5 -->
<g id="node3" class="node">
<title>q5</title>
<ellipse fill="none" stroke="black" cx="27" cy="-24.13" rx="20.13" ry="20.13"/>
<ellipse fill="none" stroke="black" cx="27" cy="-24.13" rx="24.13" ry="24.13"/>
<text text-anchor="middle" x="27" y="-18.7" font-family="Times New Roman,serif" font-size="14.00">q5</text>
</g>
<!-- q5&#45;&gt;q5 -->
<g id="edge3" class="edge">
<title>q5&#45;&gt;q5</title>
<path fill="none" stroke="black" d="M49.54,-33.32C59.99,-34.32 69.13,-31.26 69.13,-24.13 69.13,-19.78 65.73,-16.95 60.72,-15.62"/>
<polygon fill="black" stroke="black" points="61.24,-12.15 51.05,-15.03 60.81,-19.14 61.24,-12.15"/>
<text text-anchor="middle" x="72.88" y="-18.7" font-family="Times New Roman,serif" font-size="14.00">o</text>
</g>
<!-- q0 -->
<g id="node4" class="node">
<title>q0</title>
<ellipse fill="none" stroke="black" cx="27" cy="-469" rx="27" ry="18"/>
<text text-anchor="middle" x="27" y="-463.58" font-family="Times New Roman,serif" font-size="14.00">q0</text>
</g>
<!-- q0&#45;&gt;q1 -->
<g id="edge4" class="edge">
<title>q0&#45;&gt;q1</title>
<path fill="none" stroke="black" d="M27,-450.65C27,-439.26 27,-424.09 27,-410.93"/>
<polygon fill="black" stroke="black" points="30.5,-411.09 27,-401.09 23.5,-411.09 30.5,-411.09"/>
<text text-anchor="middle" x="30.75" y="-419.7" font-family="Times New Roman,serif" font-size="14.00">p</text>
</g>
<!-- q4 -->
<g id="node5" class="node">
<title>q4</title>
<ellipse fill="none" stroke="black" cx="27" cy="-118" rx="27" ry="18"/>
<text text-anchor="middle" x="27" y="-112.58" font-family="Times New Roman,serif" font-size="14.00">q4</text>
</g>
<!-- q4&#45;&gt;q5 -->
<g id="edge5" class="edge">
<title>q4&#45;&gt;q5</title>
<path fill="none" stroke="black" d="M27,-99.72C27,-88.54 27,-73.6 27,-60.02"/>
<polygon fill="black" stroke="black" points="30.5,-60.09 27,-50.09 23.5,-60.09 30.5,-60.09"/>
<text text-anchor="middle" x="30.75" y="-68.7" font-family="Times New Roman,serif" font-size="14.00">o</text>
</g>
<!-- q3&#45;&gt;q4 -->
<g id="edge6" class="edge">
<title>q3&#45;&gt;q4</title>
<path fill="none" stroke="black" d="M27,-187.4C27,-176.01 27,-160.84 27,-147.68"/>
<polygon fill="black" stroke="black" points="30.5,-147.84 27,-137.84 23.5,-147.84 30.5,-147.84"/>
<text text-anchor="middle" x="29.25" y="-156.45" font-family="Times New Roman,serif" font-size="14.00">r</text>
</g>
</g>
</svg>
